<svg width="64" height="8" viewBox="0 0 64 8" fill="none" xmlns="http://www.w3.org/2000/svg">
<path d="M43.6962 0.511475H41.6914L45.839 7.50448H47.7049L51.8647 0.511475H49.8476L46.7775 5.69915L43.6962 0.511475Z" fill="#757575"/>
<path d="M37.7908 0.511475H36.0547V7.50446H37.7908V0.511475Z" fill="#757575"/>
<path d="M23.918 0.511475H32.0724V2.21045H28.8632V7.50446H27.1156V2.21045H23.918V0.511475Z" fill="#757575"/>
<path d="M17.7556 0.511475H15.89L11.7422 7.50446H13.747L16.8285 2.32768L19.8987 7.50446H21.9155L17.7556 0.511475Z" fill="#757575"/>
<path d="M0.175781 0.511475H1.82943L1.87636 0.5571L6.58269 5.06793V0.511475H8.33021V7.50446H6.65387L1.91171 2.95927V7.50446H0.175781V0.511475Z" fill="#757575"/>
<path d="M55.8523 0.511475L55.8516 7.50448H63.8251V6.02256H57.3469V4.76941H63.8251V3.2577H57.3469V2.00507H63.8251V0.511475H55.8523Z" fill="#757575"/>
</svg>
