<svg width="49" height="14" viewBox="0 0 49 14" fill="none" xmlns="http://www.w3.org/2000/svg">
<path d="M46.8887 11.3418L47.6699 9.10645H48.6396L47.2598 12.709C46.9323 13.5528 46.5038 14 45.8047 14C45.5466 13.9999 45.3135 13.9371 45.1436 13.8301L45.2949 13.0869C45.427 13.1498 45.5781 13.2001 45.7354 13.2002C46.0188 13.2002 46.227 13.0361 46.4033 12.6582L46.4727 12.501L44.9736 9.10645H46L46.8887 11.3418ZM11.999 0C13.1024 0.000172831 13.9971 0.897068 13.9971 1.99805V11.999C13.9969 13.1022 13.0999 13.997 11.999 13.9971H1.99805C0.894738 13.9972 0.000163439 13.1 0 11.999V1.99805C0 0.89463 0.89697 0 1.99805 0H11.999ZM34.8486 9.01758C35.8311 9.01771 36.5361 9.82425 36.5361 10.8193C36.5361 11.8145 35.8306 12.6211 34.8418 12.6211C34.3633 12.621 34.0165 12.4124 33.7646 12.1416V13.9492H32.877V9.10645H33.7588V9.52832C34.0107 9.23859 34.3636 9.01758 34.8486 9.01758ZM24.1016 9.01172C25.1975 9.01174 25.9404 9.83048 25.9404 10.8193C25.9404 11.8207 25.1975 12.6269 24.1016 12.627C23.0057 12.627 22.2627 11.8208 22.2627 10.8193C22.2627 9.83047 23.0056 9.01172 24.1016 9.01172ZM38.6816 9.01758C39.1666 9.01758 39.5201 9.23219 39.7783 9.51562V9.10645H40.6221V12.5391H39.7783V12.1416C39.5264 12.4124 39.1666 12.6211 38.6816 12.6211C37.6867 12.6209 36.9814 11.8269 36.9814 10.8066C36.9814 9.77384 37.7056 9.01781 38.6816 9.01758ZM19.9209 7.80176C20.7836 7.80184 21.5208 8.19885 21.9238 8.76562L21.2998 9.37695C20.9786 8.98017 20.5187 8.70312 19.9707 8.70312C19.1394 8.70328 18.4844 9.33956 18.4844 10.2275C18.4846 11.0902 19.1273 11.7139 19.9648 11.7139C20.5128 11.7138 20.9918 11.4426 21.3193 11.0332L21.9609 11.6191C21.5515 12.1796 20.8024 12.6083 19.9082 12.6084C18.5793 12.6084 17.5148 11.6508 17.5146 10.2275C17.5146 8.79147 18.6108 7.80176 19.9209 7.80176ZM30.7168 9.01172C31.4978 9.01172 32.1152 9.52202 32.1152 10.4668V12.5391H31.2266V10.6299C31.2264 10.0885 30.9367 9.83008 30.54 9.83008C30.1057 9.8303 29.7852 10.1454 29.7852 10.6553V12.5391H28.8965V10.6367C28.8965 10.1204 28.6196 9.83025 28.2041 9.83008C27.7821 9.83008 27.4541 10.133 27.4541 10.6621V12.5391H26.5664V9.10645H27.4355V9.59766C27.6307 9.23245 28.0397 9.00556 28.4805 9.01172C28.8898 9.01172 29.293 9.20061 29.4883 9.61621C29.7402 9.23201 30.2129 9.01173 30.7168 9.01172ZM43.3672 9.01172C44.0599 9.01188 44.708 9.47161 44.708 10.4414V12.5391H43.8203V10.6807C43.8203 10.1264 43.524 9.83008 43.0957 9.83008C42.6299 9.83022 42.3087 10.183 42.3086 10.6992V12.5391H41.4209V9.10645H42.29V9.58496C42.4664 9.26374 42.857 9.01172 43.3672 9.01172ZM38.8271 9.83008C38.254 9.83008 37.8691 10.284 37.8691 10.8193C37.8692 11.3673 38.2603 11.8145 38.8271 11.8145C39.3939 11.8143 39.791 11.3609 39.791 10.8193C39.791 10.284 39.3939 9.83018 38.8271 9.83008ZM34.6914 9.84277C34.1247 9.84277 33.7463 10.2837 33.7461 10.8252C33.7461 11.3669 34.1245 11.8086 34.6914 11.8086C35.2643 11.8083 35.6416 11.3667 35.6416 10.8252C35.6414 10.2838 35.2642 9.84302 34.6914 9.84277ZM24.1016 9.84277C23.5662 9.84277 23.1504 10.2777 23.1504 10.8193C23.1504 11.3673 23.5662 11.8018 24.1016 11.8018C24.6369 11.8017 25.0527 11.3672 25.0527 10.8193C25.0527 10.2777 24.6369 9.84279 24.1016 9.84277ZM2.16602 7.39355C2.16618 8.52028 2.86756 9.33092 4.33887 9.33105C5.81042 9.33105 6.498 8.52725 6.49805 7.38672V4.66602H5.30176V7.35254C5.30165 7.89517 4.97147 8.28711 4.33887 8.28711C3.69956 8.28701 3.36925 7.89523 3.36914 7.35254V4.66602H2.16602V7.39355ZM9.89746 4.66602C8.53535 4.66602 7.49821 5.60542 7.49805 6.99805C7.49805 8.38412 8.53524 9.33105 9.89746 9.33105C10.967 9.33087 11.5453 8.69564 11.8311 8.12109L10.8477 7.64746C10.7015 8.00563 10.3226 8.30349 9.89746 8.30371C9.17313 8.30371 8.66113 7.735 8.66113 6.99805C8.66128 6.2544 9.17337 5.69336 9.89746 5.69336C10.3225 5.69358 10.7015 5.99144 10.8477 6.34961L11.8311 5.86914C11.5453 5.28099 10.967 4.6662 9.89746 4.66602ZM18.667 4.47656C18.667 5.11264 19.0261 5.41497 19.5488 5.41504C20.0653 5.41504 20.418 5.10012 20.418 4.47656V1.58594H21.3633V4.54004C21.3631 5.76795 20.525 6.32227 19.5488 6.32227C18.5665 6.3222 17.7287 5.76787 17.7285 4.54004V1.58594H18.667V4.47656ZM25.7256 3.2041C25.9649 2.92697 26.2991 2.71973 26.7715 2.71973C27.7477 2.71979 28.4844 3.50073 28.4844 4.52734C28.4842 5.55379 27.7476 6.3222 26.7715 6.32227C26.2802 6.32227 25.9395 6.10126 25.7002 5.81152V6.24023H24.8379V1.45312H25.7256V3.2041ZM30.624 2.71973C31.109 2.71973 31.4625 2.93336 31.7207 3.2168V2.80762H32.5645V6.24023H31.7207V5.84375C31.4688 6.11458 31.109 6.32227 30.624 6.32227C29.629 6.32207 28.9238 5.52805 28.9238 4.50781C28.924 3.47513 29.648 2.71992 30.624 2.71973ZM23.9814 2.71289C24.1074 2.71289 24.2589 2.73867 24.3975 2.78906L24.3223 3.63867C24.1837 3.59458 24.0444 3.56934 23.9121 3.56934C23.4463 3.56948 23.0754 3.85943 23.0752 4.6084V6.24023H22.1865V2.80762H23.0371V3.26758C23.2512 2.88976 23.5785 2.71298 23.9814 2.71289ZM35.3096 2.71289C36.0022 2.71309 36.6503 3.17296 36.6504 4.14258V6.24023H35.7627V4.38184C35.7626 3.82776 35.4663 3.53223 35.0381 3.53223C34.5721 3.53233 34.251 3.88496 34.251 4.40137V6.24023H33.3633V2.80762H34.2324V3.28613C34.4088 2.965 34.7995 2.71289 35.3096 2.71289ZM30.7695 3.53223C30.1964 3.53223 29.8116 3.98522 29.8115 4.52051C29.8115 5.06848 30.2027 5.51562 30.7695 5.51562C31.3363 5.51548 31.7334 5.06209 31.7334 4.52051C31.7333 3.9853 31.3362 3.53237 30.7695 3.53223ZM26.6328 3.53809C26.066 3.53809 25.6886 3.98522 25.6885 4.52051C25.6885 5.06218 26.0659 5.50977 26.6328 5.50977C27.1997 5.50976 27.5771 5.06218 27.5771 4.52051C27.5771 3.97893 27.1996 3.5381 26.6328 3.53809Z" fill="#757575"/>
</svg>
